name processed_emg_signals
nRows=58
nColumns=7
 
endheader
time	RGLTMED	RRF	RADDLONG	RST	RTA	RGM
1.16	0.1742313686426645	0.0784408144345864	0.4185590473521477	0.4519153581569054	0.9948309405332604	0.0905024729528815
1.161	0.1752489112242684	0.0772089997316962	0.4182121026760533	0.4518602334349363	0.9961058282729504	0.0904629785986455
1.162	0.1762625421858516	0.0760629351382836	0.4178502998359318	0.4516551748007737	0.9972024793741654	0.0904169262247557
1.163	0.1772722614000703	0.0750031674836322	0.4174725840298041	0.4512992749416528	0.9981200151187686	0.0903644342361155
1.164	0.1782781022668398	0.0740301749850179	0.4170779209766595	0.4507917901950048	0.9988576976048952	0.0903056300315843
1.165	0.1792801296892038	0.0731443673431818	0.4166653010055832	0.4501321426175013	0.9994149286408114	0.0902406498615816
1.166	0.1802784380285145	0.0723460859390043	0.4162337430612094	0.4493199218326496	0.9997912485035518	0.0901696386676851
1.167	0.1812731490447509	0.0716356041295341	0.4157822986070492	0.4483548866455929	0.9999863345915484	0.0900927499051471
1.168	0.1822644098276454	0.0710131276414059	0.4153100554075723	0.4472369664137169	1.0	0.0900101453492293
1.169	0.1832523907240147	0.0704787950597181	0.4148161411696334	0.445966262161726	0.9998321920465398	0.0899219948863986
1.17	0.1842372832663037	0.0700326784103781	0.4142997270234316	0.4445430474303488	0.9994829907727284	0.089828476291434
1.171	0.1852192981076628	0.0696747838340453	0.4137600308238556	0.4429677688484103	0.9989526074445872	0.0897297749915613
1.172	0.1861986629685834	0.0694050523497492	0.4131963202545149	0.4412410464183578	0.9982413830729606	0.0896260838187272
1.173	0.1871756206005599	0.0692233607062095	0.4126079157183759	0.4393636735058333	0.9973497869724652	0.0895176027510845
1.174	0.1881504267717075	0.0691295223188978	0.4119941930011317	0.4373366165245909	0.9962784153760348	0.0894045386448238
1.175	0.1891233482791963	0.0691232882906935	0.4113545856949178	0.4351610143090059	0.9950279901205996	0.0892871049573675
1.176	0.1900946609930095	0.0692043485139588	0.4106885873725181	0.4328381771679271	0.9935993574179598	0.0891655214629221
1.177	0.1910646479350517	0.0693723328516766	0.4099957535046287	0.4303695856153668	0.991993486723156	0.0890400139612807
1.178	0.1920335973975607	0.0696268123951558	0.4092757031156198	0.4277568887756922	0.9902114697108514	0.0889108139807953
1.179	0.1930018011043219	0.0699673007956468	0.4085281201758994	0.4250019024636008	0.9882545193682007	0.0887781584763204
1.18	0.1939695524180399	0.0703932556670262	0.4077527547321317	0.4221066069414295	0.9861239692104714	0.0886422895228594
1.181	0.1949371445968197	0.0709040800566161	0.4069494237793329	0.4190731443589567	0.9838212726232208	0.0885034540053648
1.182	0.195904869102256	0.071499123981046	0.406118011881492	0.4159038158828826	0.9813480023323622	0.088361903304918
1.183	0.196873013961285	0.0721776860239841	0.4052584715489957	0.412601078524881	0.9787058500008684	0.0882178929812069
1.184	0.1978418621837675	0.0729390149925655	0.4043708233828524	0.4091675416782055	0.9758966259483296	0.0880716824510298
1.185	0.1988116902376916	0.0737823116292658	0.4034551559967814	0.4056059633731325	0.9729222589872694	0.0879235346623288
1.186	0.1997827665839187	0.0747067303760212	0.4025116257291366	0.4019192462616824	0.9697847963678368	0.0877737157631086
1.187	0.2007553502725431	0.0757113811872981	0.4015404561570153	0.3981104333415018	0.9664864038203382	0.0876224947644618
1.188	0.201729689602729	0.0767953313887632	0.4005419374247523	0.3941827034285042	0.9630293656828004	0.0874701431967868
1.189	0.2027060208474885	0.0779576075780207	0.3995164253993308	0.3901393663872755	0.9594160850990028	0.0873169347582952
1.19	0.2036845670447521	0.0791971975638453	0.3984643406651587	0.3859838581282532	0.955649084271076	0.0871631449549598
1.191	0.204665536855244	0.0805130523402327	0.3973861673707617	0.3817197353806245	0.9517310047496168	0.0870090507311865
1.192	0.2056491234874991	0.0819040880915098	0.3962824519400452	0.3773506702502829	0.9476646077430104	0.0868549300907572
1.193	0.2066355036895284	0.0833691882247633	0.3951538016608692	0.3728804445722443	0.943452774426152	0.0867010617078168
1.194	0.2076248368066637	0.0849072054257671	0.3940008831632509	0.3683129440675108	0.9390985062271208	0.0865477245279746
1.195	0.2086172639049343	0.0865169637344851	0.3928244207991481	0.3636521523151349	0.9346049250688144	0.0863951973598921
1.196	0.2096129069597993	0.0881972606360903	0.3916251949347501	0.358902144551471	0.9299752735413478	0.0862437584580045
1.197	0.210611868110524	0.0899468691633084	0.3904040401655454	0.3540670813100095	0.925212914980439	0.0860936850973642
1.198	0.2116142289803202	0.0917645400057281	0.3891618434634645	0.3491512019168053	0.9203213334270473	0.0859452531417341
1.199	0.2126200500630133	0.093649003621667	0.3878995422645905	0.3441588178577765	0.9153041334441394	0.0857987366061615
1.2	0.2136293701761238	0.0955989723482245	0.3866181225051931	0.3390943060354894	0.910165039767852	0.0856544072150822
1.201	0.2146422059805535	0.0976131425050723	0.3853186166131137	0.333962101933596	0.9049078967722444	0.0855125339569706
1.202	0.2156585515667034	0.0996901964876928	0.3840021014608524	0.3287666927082153	0.8995366677293861	0.0853733826363025
1.203	0.2166783781071787	0.1018288048458101	0.3826696962860682	0.3235126102258262	0.8940554338493658	0.0852372154235286
1.204	0.2177016335759348	0.1040276283428958	0.3813225605847523	0.318204424067908	0.8884683930876037	0.0851042904036669
1.205	0.2187282425342087	0.1062853199926823	0.3799618919820657	0.3128467345223547	0.8827798587093745	0.0849748611241017
1.206	0.2197581059830138	0.1086005270686389	0.3785889240859233	0.3074441655814931	0.8769942576039697	0.084849176142201
1.207	0.2207911012821767	0.1109718930825275	0.377204924328416	0.3020013579656042	0.8711161283436879	0.0847274785735013
1.208	0.2218270821354439	0.113398059728346	0.3758111918001455	0.2965229621900289	0.8651501189855968	0.0846100056413533
1.209	0.2228658786406488	0.1158776687882454	0.3744090550820896	0.2910136316928696	0.8591009846165883	0.0844969882291114
1.21	0.2239072974038166	0.118409363997312	0.3729998700793291	0.2854780160392411	0.8529735846442239	0.0843886504363043
1.211	0.2249511217157749	0.1209917928642543	0.3715850178605357	0.2799207542171013	0.8467728798374746	0.0842852091404512
1.212	0.225997111789416	0.1236236084452083	0.3701659025071477	0.2743464680386293	0.840503929123204	0.0841868735665393
1.213	0.2270450050558193	0.1263034710677702	0.3687439489757237	0.2687597556603201	0.8341718861460998	0.0840938448663919
1.214	0.228094516517108	0.1290300500024874	0.3673206009767029	0.2631651852338985	0.8277819956011813	0.0840063157102267
1.215	0.2291453391538163	0.1318020250790898	0.3658973188720762	0.2575672886993723	0.8213395893483612	0.083924469892724
1.216	0.2301971443846064	0.1346180882449941	0.3644755775941798	0.2519705557304542	0.814850082317916	0.0838484819558046
1.217	0.2312495825757741	0.1374769450636667	0.3630568645875656	0.246379427841813	0.8083189682142816	0.0837785168301927
